<svg width="16" height="16" viewBox="0 0 16 16" fill="none" xmlns="http://www.w3.org/2000/svg">
  <path d="M8.525 0.026c1.025-0.027 2.04.141 2.994.49.747.275 1.4.75 1.9 1.375.275.35.475.75.6 1.175.125.425.175.875.15 1.325-.05.9-.35 1.75-.85 2.45-.5.7-1.2 1.25-2 1.575-.4.15-.825.225-1.25.225v-2.1c.4 0 .775-.1 1.1-.3.325-.2.575-.5.7-.85.125-.35.125-.725 0-1.075-.125-.35-.375-.65-.7-.85-.325-.2-.7-.3-1.1-.3v8.1c0 .55-.45 1-1 1s-1-.45-1-1v-2.1c-.4 0-.775.1-1.1.3-.325.2-.575.5-.7.85-.125.35-.125.725 0 1.075.125.35.375.65.7.85.325.2.7.3 1.1.3v2.1c0 .55.45 1 1 1s1-.45 1-1V8.026c.425 0 .85-.075 1.25-.225.8-.325 1.5-.875 2-1.575.5-.7.8-1.55.85-2.45.025-.45-.025-.9-.15-1.325-.125-.425-.325-.825-.6-1.175-.5-.625-1.15-1.1-1.9-1.375-.95-.35-1.975-.5-2.994-.49z" fill="white"/>
</svg>